<svg version="1.1" id="Layer_1" xmlns="http://www.w3.org/2000/svg" xmlns:xlink="http://www.w3.org/1999/xlink" x="0px" y="0px"
	 width="100%" viewBox="0 0 837 234" enable-background="new 0 0 837 234" xml:space="preserve">
<path fill="#111111" opacity="1.000000" stroke="none" 
	d="
M651.000000,235.000000 
	C434.050507,235.000000 217.600983,235.000000 1.075742,235.000000 
	C1.075742,157.068756 1.075742,79.137405 1.075742,1.103031 
	C279.999969,1.103031 559.000000,1.103031 837.978027,1.103031 
	C837.978027,79.065742 837.978027,157.032867 837.978027,235.000000 
	C775.804016,235.000000 713.651978,235.000000 651.000000,235.000000 
M500.783325,190.069519 
	C500.783325,194.319565 500.783325,198.569595 500.783325,203.061279 
	C486.482941,203.061279 472.879578,203.061279 459.082611,202.134186 
	C459.082611,185.232239 459.082611,168.330307 459.082611,150.938202 
	C484.240448,150.938202 508.916809,150.938202 533.753540,150.938202 
	C533.753540,144.391312 533.753540,138.341156 533.753540,131.990387 
	C531.329468,131.990387 529.189636,131.990387 526.830750,131.213455 
	C524.350281,130.753830 521.869751,130.294205 519.270996,128.954849 
	C518.411255,128.636017 517.552124,128.040390 516.691772,128.038651 
	C492.220367,127.989052 467.748077,127.887657 443.277740,128.056961 
	C434.060699,128.120728 425.997589,136.089966 425.891083,145.348160 
	C425.663239,165.155594 425.675568,184.969147 425.894531,204.776810 
	C425.987549,213.190674 432.480286,220.016006 440.957733,221.600586 
	C444.269653,222.479736 447.581543,223.358887 451.417572,224.806335 
	C453.353821,225.209595 455.288544,225.954849 457.226532,225.963333 
	C477.035339,226.050095 496.846466,226.170395 516.653076,225.945129 
	C525.035522,225.849792 533.035156,219.380051 533.532043,211.046005 
	C534.339478,197.503311 533.749695,183.877335 533.749695,169.980011 
	C531.314148,169.980011 529.171936,169.980011 526.815857,169.148483 
	C524.349548,168.712341 521.883301,168.276184 519.356384,167.078186 
	C518.218811,166.714523 517.082458,166.038712 515.943420,166.034073 
	C499.327454,165.966492 482.711090,165.980667 466.094879,166.010620 
	C465.174591,166.012268 464.254822,166.322113 463.439301,166.469620 
	C463.439301,172.724899 463.439301,178.652115 463.439301,184.930511 
	C465.677032,184.930511 467.652893,184.930511 469.893768,185.761948 
	C472.325348,186.223999 474.756927,186.686035 477.281525,187.951645 
	C478.785400,188.296890 480.282532,188.902618 481.794373,188.942001 
	C488.120575,189.106827 494.451202,189.101730 500.783325,190.069519 
M683.143005,72.077415 
	C683.143005,76.633858 683.143005,81.190300 683.143005,86.056244 
	C668.967651,86.056244 655.446716,86.056244 641.702332,85.134125 
	C641.702332,67.898438 641.702332,50.662750 641.702332,32.913040 
	C666.860779,32.913040 691.537964,32.913040 716.316101,32.913040 
	C716.316101,26.346573 716.316101,20.302618 716.316101,13.958661 
	C713.839905,13.958661 711.691589,13.958661 708.958679,13.305707 
	C706.633240,13.150542 704.307861,12.995377 701.909241,11.999592 
	C700.746887,11.661673 699.585144,11.031682 698.421997,11.028908 
	C674.479614,10.971805 650.536804,10.929421 626.594543,11.013460 
	C616.635864,11.048415 608.369995,18.917978 608.240051,28.971910 
	C607.990662,48.255764 608.043396,67.546249 608.221436,86.831673 
	C608.303101,95.686707 614.380493,102.641785 622.512573,103.973648 
	C622.512573,103.973648 622.440979,103.992332 622.750916,104.544968 
	C623.152527,104.623367 623.554138,104.701767 624.716675,105.001755 
	C628.304199,105.774002 631.891724,106.546249 636.024109,107.741669 
	C638.137878,107.829048 640.251587,107.916428 643.094971,108.192490 
	C661.532043,108.146049 679.972534,108.294319 698.404968,107.977570 
	C708.875183,107.797646 716.399536,99.875847 716.606323,89.418388 
	C716.777100,80.783401 716.643372,72.142387 716.644226,63.504044 
	C716.644653,59.753643 716.644287,56.003242 716.644287,51.963722 
	C713.835693,51.963722 711.691284,51.963722 708.960999,51.307617 
	C706.626526,51.149136 704.291992,50.990658 701.891541,49.994694 
	C700.391602,49.662743 698.893433,49.052059 697.391541,49.042747 
	C684.903381,48.965313 672.414673,48.998837 659.926086,48.998833 
	C655.318787,48.998833 650.711487,48.998833 646.186462,48.998833 
	C646.186462,55.643093 646.186462,61.702316 646.186462,67.912247 
	C648.391357,67.912247 650.216492,67.912247 652.307617,68.676468 
	C654.819031,69.164948 657.330444,69.653427 660.405457,70.807678 
	C667.981812,70.926048 675.558228,71.044418 683.143005,72.077415 
M196.626175,72.081230 
	C196.626175,82.932610 196.626175,93.783997 196.626175,104.998276 
	C199.140167,104.998276 201.088593,104.998276 203.302094,105.784531 
	C205.656967,106.246323 208.011841,106.708115 210.898148,107.756950 
	C217.125320,107.756950 223.352493,107.756950 229.414154,107.756950 
	C229.414154,76.221107 229.414154,45.209129 229.414154,13.977753 
	C227.032303,13.977753 225.042068,13.977753 222.578583,13.312799 
	C220.116074,13.151331 217.653549,12.989863 215.111496,11.963927 
	C209.031555,11.525136 202.951614,11.086345 196.356720,10.610389 
	C196.356720,24.039501 196.356720,36.414215 196.356720,48.992439 
	C182.264420,48.992439 168.652084,48.992439 154.846802,48.073292 
	C154.846802,36.865982 154.846802,25.658674 154.846802,13.977611 
	C152.258820,13.977611 150.154816,13.977611 147.578079,13.312447 
	C145.115738,13.151096 142.653381,12.989747 140.111496,11.963928 
	C134.032242,11.524269 127.952995,11.084610 121.903961,10.647136 
	C121.903961,42.643490 121.903961,73.626427 121.903961,104.998276 
	C124.119415,104.998276 126.078224,104.998276 128.302124,105.784592 
	C130.657364,106.246361 133.012589,106.708138 135.899261,107.756691 
	C142.122894,107.756691 148.346527,107.756691 154.890869,107.756691 
	C154.890869,95.327812 154.890869,83.408188 154.890869,70.825996 
	C167.814743,70.825996 180.406021,70.825996 193.711548,70.974075 
	C194.679581,71.037933 195.647614,71.101799 196.626175,72.081230 
M439.806610,72.072372 
	C439.806610,83.003937 439.806610,93.935501 439.806610,105.014610 
	C442.472412,105.014610 444.468933,105.014610 446.737091,105.837685 
	C449.140198,106.277405 451.543335,106.717125 454.487396,107.823753 
	C460.590698,107.823753 466.694031,107.823753 473.064392,107.823753 
	C473.064392,81.693184 473.325897,55.926052 472.923065,30.169310 
	C472.781372,21.107506 464.169189,14.123076 454.271484,14.015909 
	C451.900360,13.625675 449.529236,13.235442 446.637207,12.248928 
	C443.870422,11.831941 441.105713,11.070889 438.336487,11.053873 
	C420.532349,10.944470 402.727203,10.991198 384.922394,11.000348 
	C372.399658,11.006783 364.820282,18.596193 364.809631,31.184822 
	C364.790161,54.148014 364.804016,77.111237 364.803986,100.074440 
	C364.803955,101.669548 364.803955,103.264664 364.803955,105.013687 
	C367.465179,105.013687 369.458771,105.013687 371.734833,105.834106 
	C374.139862,106.274857 376.544891,106.715607 379.490601,107.822792 
	C385.579803,107.822792 391.669037,107.822792 398.104279,107.822792 
	C398.104279,95.406601 398.104279,83.328972 399.017059,71.094803 
	C412.612579,71.114746 426.208069,71.134689 439.806610,72.072372 
M561.059875,60.649662 
	C546.952454,46.538933 532.824036,32.449112 518.755371,18.299892 
	C515.941101,15.469532 513.031677,13.189919 507.972778,13.947555 
	C505.669128,13.580046 503.365479,13.212536 500.617889,12.244556 
	C492.559937,9.069518 486.671173,12.924233 486.651367,21.598616 
	C486.589996,48.496151 486.629242,75.393921 486.641602,102.291595 
	C486.641968,103.075172 486.778748,103.858681 486.885345,105.000519 
	C489.126495,105.000519 491.081909,105.000519 493.301666,105.786888 
	C495.657440,106.247765 498.013214,106.708641 500.900543,107.755974 
	C507.101196,107.755974 513.301819,107.755974 520.035278,107.755974 
	C520.035278,90.959641 520.035278,74.603889 520.657349,58.640301 
	C534.522583,72.546242 548.290161,86.552361 562.351746,100.256927 
	C564.626587,102.474014 568.207336,103.351219 571.877380,105.132523 
	C574.965698,105.777565 578.054016,106.422615 581.678650,107.627068 
	C590.886169,108.786240 594.799316,105.426689 594.804810,96.271454 
	C594.820190,70.476204 594.810181,44.680946 594.810242,18.885691 
	C594.810242,17.320711 594.810242,15.755733 594.810242,13.977403 
	C592.029114,13.977403 590.040466,13.977403 587.578735,13.312289 
	C585.116272,13.150883 582.653870,12.989476 580.111633,11.963650 
	C574.031372,11.525278 567.951172,11.086905 561.582031,10.627707 
	C561.582031,28.112997 561.582031,44.554523 561.059875,60.649662 
M257.142029,190.071136 
	C257.142029,194.312363 257.142029,198.553589 257.142029,203.296890 
	C231.771927,203.296890 207.112366,203.296890 182.377258,203.296890 
	C182.377258,209.743240 182.377258,215.666718 182.377258,222.073715 
	C184.711746,222.073715 186.831512,222.073715 189.158218,222.893127 
	C191.495636,223.438446 193.833054,223.983749 196.255661,225.306473 
	C196.981949,225.606445 197.708405,226.168884 198.434464,226.168365 
	C223.416885,226.150284 248.401108,226.233047 273.380676,225.933655 
	C282.408142,225.825455 289.975464,218.114853 290.512177,208.846008 
	C290.925507,201.707855 290.875275,194.513580 290.531067,187.368362 
	C290.118927,178.813614 283.790222,171.954666 276.010620,170.986664 
	C276.010620,170.986664 276.071228,170.955444 276.068787,170.362579 
	C275.501007,170.296265 274.933258,170.229935 273.578308,169.950882 
	C270.608551,169.245041 267.638763,168.539185 264.193542,167.295944 
	C261.260040,166.862411 258.330170,166.085587 255.392426,166.054398 
	C242.237381,165.914673 229.080109,165.987350 215.695877,165.073074 
	C215.695877,160.491058 215.695877,155.909042 215.695877,150.839294 
	C240.939896,150.839294 265.597504,150.839294 290.273682,150.839294 
	C290.273682,144.290039 290.273682,138.257462 290.273682,131.975403 
	C287.922058,131.975403 285.939758,131.975403 283.696014,131.208160 
	C281.122070,130.750748 278.548096,130.293335 275.903290,128.996552 
	C274.904449,128.661163 273.906219,128.035156 272.906647,128.032928 
	C248.599670,127.978981 224.291931,127.890800 199.985764,128.042053 
	C190.390900,128.101761 182.522842,136.244354 182.213898,146.128464 
	C182.000748,152.947739 182.007706,159.784058 182.213318,166.603806 
	C182.490829,175.808182 188.872330,182.926498 198.070343,184.485184 
	C201.296524,185.373093 204.522705,186.261002 208.310272,187.722122 
	C211.220474,188.143066 214.126205,188.889084 217.041656,188.929276 
	C230.403473,189.113571 243.768005,189.100296 257.142029,190.071136 
M622.626953,190.074722 
	C622.626953,200.578201 622.626953,211.081696 622.626953,222.000183 
	C625.066101,222.000183 627.007812,222.000183 629.175964,222.816376 
	C631.572937,223.266907 633.969971,223.717453 636.440063,224.951752 
	C642.800537,225.439026 649.160950,225.926285 655.790833,226.434174 
	C655.790833,199.993256 655.952087,174.760803 655.704651,149.532364 
	C655.616272,140.523209 648.806213,133.744064 638.817566,131.996719 
	C635.876953,131.275726 632.936401,130.554749 629.497253,129.248657 
	C626.727417,128.832138 623.959656,128.071930 621.187317,128.054916 
	C603.369324,127.945572 585.550354,127.991135 567.731689,128.001663 
	C555.234131,128.009064 547.649902,135.618683 547.634277,148.240952 
	C547.605896,171.221985 547.626221,194.203110 547.626221,217.184189 
	C547.626221,218.638351 547.626160,220.092499 547.626160,222.003922 
	C550.046814,222.003922 551.999268,222.003922 554.176636,222.820480 
	C556.575745,223.270157 558.974915,223.719818 561.445312,224.952423 
	C567.705750,225.454163 573.966248,225.955887 580.791504,226.502884 
	C580.791504,213.520309 580.791504,201.468704 580.791504,189.158539 
	C595.075073,189.158539 608.846558,189.158539 622.626953,190.074722 
M337.208832,202.159164 
	C337.208832,178.826584 337.208832,155.494019 337.208832,131.980499 
	C334.509125,131.980499 332.521667,131.980499 330.258728,131.144394 
	C327.787323,130.710419 325.315887,130.276428 322.766418,129.027191 
	C316.692108,128.539841 310.617798,128.052475 304.171417,127.535255 
	C304.171417,154.330078 303.902527,180.178986 304.333984,206.016220 
	C304.464752,213.848618 311.149078,219.904816 318.507568,220.983383 
	C318.507568,220.983383 318.435974,221.001495 318.726318,221.583328 
	C319.141937,221.651718 319.557587,221.720123 320.717468,222.003082 
	C323.487793,222.737778 326.258148,223.472473 329.521973,224.788651 
	C332.118927,225.238724 334.713470,226.062424 337.313171,226.078918 
	C355.765167,226.196075 374.220947,226.344803 392.669891,226.083588 
	C405.047455,225.908340 412.153107,218.210449 412.164032,205.769302 
	C412.184235,182.826736 412.170013,159.884155 412.170105,136.941574 
	C412.170105,135.347717 412.170044,133.753845 412.170044,131.975769 
	C409.506104,131.975769 407.515228,131.975769 405.256683,131.138412 
	C402.786896,130.706223 400.317108,130.274048 397.769409,129.026077 
	C391.689911,128.538284 385.610413,128.050507 378.872742,127.509918 
	C378.872742,153.286942 378.872742,178.084656 378.872742,203.088364 
	C364.648254,203.088364 351.031189,203.088364 337.208832,202.159164 
M325.946838,108.182274 
	C328.440735,108.138985 330.938782,108.173080 333.427765,108.038895 
	C343.700439,107.485046 351.453583,100.021790 351.572876,89.841034 
	C351.799103,70.537613 351.830505,51.226887 351.556610,31.924671 
	C351.411652,21.706858 343.048553,14.000119 332.374207,14.013735 
	C330.155640,13.622990 327.937073,13.232244 325.243500,12.291802 
	C322.814758,11.856093 320.388092,11.056316 317.956940,11.042557 
	C299.335297,10.937164 280.712677,10.944975 262.090576,11.000166 
	C251.525299,11.031478 243.309723,18.900635 243.212784,29.471058 
	C243.037430,48.590485 243.040329,67.713844 243.219849,86.833206 
	C243.302994,95.687828 249.382217,102.645363 257.512329,103.974060 
	C257.512329,103.974060 257.441101,103.992638 257.751038,104.546318 
	C258.153259,104.624603 258.555450,104.702881 259.718445,105.002274 
	C263.305542,105.774307 266.892670,106.546341 271.061096,107.748322 
	C289.055176,107.828087 307.049286,107.907852 325.946838,108.182274 
z"/>
<path fill="#FDFDFF" opacity="1.000000" stroke="none" 
	d="
M477.188507,187.148071 
	C474.756927,186.686035 472.325348,186.223999 469.863556,184.894562 
	C469.833344,178.789841 469.833344,173.552521 469.833344,167.840027 
	C486.908813,167.840027 503.162903,167.840027 519.416992,167.840027 
	C521.883301,168.276184 524.349548,168.712341 526.832581,170.026810 
	C526.833740,182.200195 526.880371,193.495773 526.784668,204.790146 
	C526.692688,215.654541 519.431763,223.720566 508.686462,223.938980 
	C489.428040,224.330429 470.158417,224.168625 450.893463,224.238037 
	C447.581543,223.358887 444.269653,222.479736 440.488586,221.083069 
	C434.540375,216.216049 432.209778,210.534119 432.257599,203.559433 
	C432.380737,185.592911 432.251068,167.624786 432.316559,149.657669 
	C432.359833,137.782578 440.218567,130.028046 452.021576,130.000687 
	C474.477478,129.948624 496.933380,129.890305 519.389282,129.834579 
	C521.869751,130.294205 524.350281,130.753830 526.852722,132.063385 
	C526.874695,138.169083 526.874695,143.424866 526.874695,149.185150 
	C501.432037,149.185150 476.752289,149.185150 452.207764,149.185150 
	C452.207764,168.084152 452.207764,186.450195 452.207764,204.832733 
	C454.732208,204.832733 456.880707,204.832733 459.492676,204.893921 
	C475.640137,204.955109 491.324127,204.955109 507.006226,204.955109 
	C507.006226,199.205765 507.006226,194.089630 507.053711,188.535553 
	C506.290375,187.725067 505.480286,187.031097 504.668579,187.029190 
	C495.508698,187.007523 486.348572,187.092041 477.188507,187.148071 
z"/>
<path fill="#FEFEFF" opacity="1.000000" stroke="none" 
	d="
M659.841858,70.141907 
	C657.330444,69.653427 654.819031,69.164948 652.271545,67.840546 
	C652.235474,61.749981 652.235474,56.495327 652.235474,50.832176 
	C669.361877,50.832176 685.659729,50.832176 701.957520,50.832176 
	C704.291992,50.990658 706.626526,51.149136 709.129272,52.089813 
	C709.270813,63.865421 709.238403,74.858826 709.218872,85.852249 
	C709.195374,99.106682 703.029968,105.991104 689.586243,107.151672 
	C671.240295,107.150726 653.359802,107.234619 635.479248,107.318512 
	C631.891724,106.546249 628.304199,105.774002 624.163086,104.638351 
	C623.219971,104.180733 622.830505,104.086525 622.440979,103.992325 
	C622.440979,103.992332 622.512573,103.973648 622.367310,103.678055 
	C616.879700,98.878952 614.753357,93.161034 614.834351,86.168457 
	C615.040771,68.350143 614.864075,50.527725 614.917419,32.707184 
	C614.953369,20.675703 622.630371,13.038146 634.540955,13.009661 
	C657.021423,12.955896 679.501953,12.896983 701.982422,12.840210 
	C704.307861,12.995377 706.633240,13.150542 709.126709,14.086309 
	C709.294739,20.444365 709.294739,26.021816 709.294739,32.013256 
	C683.914246,32.013256 659.361755,32.013256 634.514648,32.013256 
	C634.514648,50.818546 634.514648,69.194046 634.514648,87.832306 
	C637.024658,87.832306 639.312866,87.832306 642.090454,87.915474 
	C658.240417,87.998642 673.900940,87.998642 689.599060,87.998642 
	C689.599060,81.838028 689.599060,76.404732 689.405334,70.623268 
	C679.421692,70.230705 669.631775,70.186310 659.841858,70.141907 
z"/>
<path fill="#FDFEFF" opacity="1.000000" stroke="none" 
	d="
M207.748886,187.148895 
	C204.522705,186.261002 201.296524,185.373093 197.579926,183.992981 
	C191.357437,179.097198 188.905563,173.260590 189.139801,166.073471 
	C189.324265,160.413788 189.121765,154.742645 189.189484,149.077774 
	C189.323959,137.830734 197.244736,130.034561 208.496353,130.005096 
	C230.988953,129.946182 253.481552,129.892044 275.974152,129.835938 
	C278.548096,130.293335 281.122070,130.750748 283.727692,132.052795 
	C283.759369,138.161407 283.759369,143.425400 283.759369,149.219147 
	C258.308655,149.219147 233.623840,149.219147 208.981979,149.219147 
	C208.981979,155.706039 208.981979,161.638184 208.981979,167.813477 
	C211.371597,167.813477 213.488708,167.813477 216.095657,167.890045 
	C232.613342,167.922195 248.641174,167.877762 264.669006,167.833344 
	C267.638763,168.539185 270.608551,169.245041 274.102173,170.285889 
	C275.107758,170.732422 275.589478,170.843933 276.071228,170.955444 
	C276.071228,170.955444 276.010620,170.986664 276.096436,171.284607 
	C280.553131,175.314728 283.388580,179.911758 283.517670,185.764328 
	C283.668030,192.581985 283.748962,199.412521 283.505951,206.224823 
	C283.158600,215.963577 275.775269,223.494400 265.999359,223.927826 
	C257.697449,224.295898 249.372742,224.161667 241.057938,224.223862 
	C226.095535,224.335785 211.132965,224.428375 196.170471,224.529053 
	C193.833054,223.983749 191.495636,223.438446 189.142181,222.017609 
	C189.126129,215.885010 189.126129,210.627914 189.126129,204.865204 
	C214.522552,204.865204 239.195190,204.865204 263.916473,204.865204 
	C263.916473,199.216049 263.916473,194.091476 263.964661,188.534119 
	C263.212708,187.727768 262.412689,187.028687 261.612427,187.028412 
	C243.657928,187.022202 225.703415,187.092804 207.748886,187.148895 
z"/>
<path fill="#FCFDFF" opacity="1.000000" stroke="none" 
	d="
M629.995789,129.833755 
	C632.936401,130.554749 635.876953,131.275726 639.374878,132.368332 
	C646.052368,136.951202 648.763977,142.793076 648.737183,150.193069 
	C648.654053,173.162796 648.711426,196.133011 648.696899,219.103043 
	C648.695923,220.564682 648.547119,222.026215 648.429871,224.167999 
	C644.253723,224.167999 640.310303,224.167999 636.366943,224.167999 
	C633.969971,223.717453 631.572937,223.266907 629.150085,221.946716 
	C629.060181,210.378098 628.996155,199.679153 628.972473,188.546158 
	C627.882324,187.734482 626.753113,187.032852 625.620972,187.027985 
	C609.327881,186.957825 593.034363,186.973267 576.741028,187.003586 
	C575.801575,187.005341 574.862732,187.311554 573.574158,187.537292 
	C573.574158,199.639389 573.574158,211.564819 573.574158,224.169479 
	C569.254150,224.169479 565.314087,224.169479 561.374023,224.169479 
	C558.974915,223.719818 556.575745,223.270157 554.151978,221.950439 
	C554.142029,197.152344 554.115295,173.224197 554.189331,149.296341 
	C554.224976,137.776627 562.144958,130.030182 573.674438,129.998505 
	C592.448242,129.946899 611.221985,129.889008 629.995789,129.833755 
M629.014648,150.111908 
	C627.391296,149.733505 625.770020,149.037277 624.144287,149.026749 
	C610.555603,148.938675 596.966125,148.976669 583.376892,148.976654 
	C580.280884,148.976654 577.184875,148.976654 574.055725,148.976654 
	C574.055725,155.641220 574.055725,161.674927 574.055725,167.819855 
	C576.530823,167.819855 578.661377,167.819855 581.746765,167.966721 
	C597.451538,167.966721 613.156311,167.966721 628.934570,167.966721 
	C628.934570,161.881393 628.934570,156.430908 629.014648,150.111908 
z"/>
<path fill="#FEFEFF" opacity="1.000000" stroke="none" 
	d="
M447.158112,12.845209 
	C449.529236,13.235442 451.900360,13.625675 454.864777,14.346426 
	C462.948578,18.716633 466.201874,24.993073 466.143646,33.488167 
	C465.987335,56.290813 466.095612,79.095238 466.079224,101.898949 
	C466.078064,103.493561 465.916443,105.088058 465.803558,107.156845 
	C461.553925,107.156845 457.750183,107.156845 453.946442,107.156845 
	C451.543335,106.717125 449.140198,106.277405 446.725220,104.973282 
	C446.633972,93.063194 446.554596,82.017517 446.283386,70.634232 
	C430.063324,70.242195 414.035126,70.187759 397.565308,70.061539 
	C395.222687,69.989746 393.321655,69.989746 390.874023,69.989746 
	C390.874023,82.716827 390.874023,94.711189 390.874023,107.156349 
	C386.527496,107.156349 382.738708,107.156349 378.949921,107.156349 
	C376.544891,106.715607 374.139862,106.274857 371.718384,104.971275 
	C371.728424,80.827629 372.209442,57.534874 371.598175,34.270817 
	C371.270721,21.809662 380.521912,12.330997 392.797424,12.817835 
	C410.889557,13.535354 429.035248,12.902766 447.158112,12.845209 
M397.125580,31.988224 
	C395.230804,31.988224 393.336060,31.988224 391.440216,31.988224 
	C391.440216,38.710644 391.440216,44.715668 391.440216,50.852791 
	C393.916321,50.852791 396.040405,50.852791 399.077362,50.943367 
	C414.834930,50.943367 430.592529,50.943367 446.459442,50.943367 
	C446.459442,44.552113 446.459442,38.764252 446.089661,32.296879 
	C430.062836,32.241982 414.036041,32.187084 397.125580,31.988224 
z"/>
<path fill="#FEFEFF" opacity="1.000000" stroke="none" 
	d="
M257.441101,103.992630 
	C257.441101,103.992638 257.512329,103.974060 257.367310,103.678139 
	C251.893066,98.886375 249.756165,93.183212 249.835587,86.200989 
	C250.039856,68.246582 249.849503,50.288074 249.924911,32.331661 
	C249.973724,20.711750 257.785370,13.043884 269.365387,13.010441 
	C288.149750,12.956191 306.934143,12.898018 325.718506,12.841498 
	C327.937073,13.232244 330.155640,13.622990 332.980591,14.332125 
	C341.052368,18.696857 344.360565,24.941414 344.272095,33.445076 
	C344.088654,51.075169 344.228394,68.708519 344.213043,86.340515 
	C344.201996,99.064560 337.815948,106.027885 324.637817,107.147720 
	C306.271729,107.150299 288.375732,107.234337 270.479767,107.318375 
	C266.892670,106.546341 263.305542,105.774307 259.164734,104.638687 
	C258.221069,104.180946 257.831085,104.086792 257.441101,103.992630 
M276.317139,87.747437 
	C276.317139,87.747437 276.650116,87.744904 277.605133,87.986015 
	C293.285889,87.986015 308.966675,87.986015 324.908051,87.986015 
	C324.908051,80.229729 324.959564,73.270081 324.896210,66.311478 
	C324.795135,55.208698 324.617645,44.106609 324.132782,32.304707 
	C308.515228,32.248344 292.897675,32.191982 276.360992,31.985674 
	C274.105927,31.985674 271.850861,31.985674 269.456482,31.985674 
	C269.456482,50.950714 269.456482,69.217659 269.456482,88.005341 
	C271.794647,87.894012 273.891541,87.794182 276.317139,87.747437 
z"/>
<path fill="#FCFBFF" opacity="1.000000" stroke="none" 
	d="
M501.061829,12.845026 
	C503.365479,13.212536 505.669128,13.580046 508.518372,14.342297 
	C528.504089,34.161716 547.944214,53.586395 568.393188,74.019089 
	C568.206848,70.761337 568.113281,69.125992 568.121216,66.999763 
	C568.222656,48.817497 568.222656,31.126120 568.222656,12.828072 
	C572.641785,12.828072 576.416565,12.828072 580.191406,12.828071 
	C582.653870,12.989476 585.116272,13.150883 587.728027,14.107939 
	C587.862793,41.566948 587.738403,68.231064 587.922485,94.893059 
	C587.961426,100.536903 586.276184,104.605522 581.142334,107.067657 
	C578.054016,106.422615 574.965698,105.777565 571.382996,104.688484 
	C553.924805,87.343857 536.960999,70.443260 519.782104,53.314312 
	C517.619202,51.022118 515.671509,48.958279 513.723755,46.894444 
	C513.372314,47.114243 513.020935,47.334042 512.669556,47.553837 
	C512.669556,67.236259 512.669556,86.918678 512.669556,107.169518 
	C508.271881,107.169518 504.320435,107.169518 500.368988,107.169518 
	C498.013214,106.708641 495.657440,106.247765 493.267609,104.933395 
	C493.251160,77.594925 493.335358,51.109684 493.234894,24.625145 
	C493.212524,18.739902 495.210602,14.620263 501.061829,12.845026 
z"/>
<path fill="#FCFCFF" opacity="1.000000" stroke="none" 
	d="
M140.191040,12.828398 
	C142.653381,12.989747 145.115738,13.151096 147.726929,14.108068 
	C147.875778,26.819063 147.875778,38.734432 147.875778,50.814987 
	C150.543671,50.814987 152.670105,50.814987 155.272919,50.888878 
	C171.507202,50.962765 187.265091,50.962765 203.427643,50.962765 
	C203.427643,38.018860 203.427643,25.745209 203.427643,12.828397 
	C207.619827,12.828397 211.405441,12.828397 215.191040,12.828397 
	C217.653549,12.989863 220.116074,13.151331 222.727829,14.108324 
	C222.877075,45.463352 222.877075,76.022850 222.877075,107.169907 
	C218.280289,107.169907 214.323502,107.169907 210.366714,107.169907 
	C208.011841,106.708115 205.656967,106.246323 203.267578,104.931229 
	C203.158127,93.047287 203.083176,82.016632 202.804901,70.614838 
	C199.400238,70.212906 196.198898,70.182129 192.533752,70.081009 
	C177.488922,70.010674 162.907928,70.010674 147.778595,70.010674 
	C147.778595,82.525795 147.778595,94.563187 147.778595,107.169907 
	C143.276245,107.169907 139.322037,107.169907 135.367828,107.169907 
	C133.012589,106.708138 130.657364,106.246361 128.267609,104.931259 
	C128.233078,73.872452 128.233078,43.666973 128.233078,12.828397 
	C132.629227,12.828397 136.410141,12.828397 140.191040,12.828398 
z"/>
<path fill="#FEFEFF" opacity="1.000000" stroke="none" 
	d="
M322.844482,129.842438 
	C325.315887,130.276428 327.787323,130.710419 330.272583,132.015625 
	C330.286438,156.791656 330.286438,180.696472 330.286438,204.866119 
	C332.906982,204.866119 335.034515,204.866119 337.618408,204.914490 
	C353.831451,204.962845 369.588104,204.962845 385.921936,204.962845 
	C385.921936,179.837601 385.921936,155.155563 385.921936,129.841858 
	C390.274963,129.841858 394.061157,129.841858 397.847321,129.841858 
	C400.317108,130.274048 402.786896,130.706223 405.267059,132.010681 
	C405.250763,155.874222 405.219696,178.865524 405.198944,201.856812 
	C405.185120,217.200195 398.367462,224.144714 383.007568,224.203873 
	C365.014801,224.273163 347.021515,224.211838 329.028473,224.207184 
	C326.258148,223.472473 323.487793,222.737778 320.169250,221.639893 
	C319.226013,221.184967 318.830994,221.093231 318.435974,221.001495 
	C318.435974,221.001495 318.507568,220.983383 318.367615,220.684875 
	C312.901245,215.882767 310.783051,210.176544 310.840118,203.189194 
	C311.024963,180.561630 310.904114,157.931610 310.919556,135.302536 
	C310.920654,133.689972 311.071838,132.077515 311.184631,129.842438 
	C315.276337,129.842438 319.060425,129.842438 322.844482,129.842438 
z"/>
<path fill="#11FCFC" opacity="1.000000" stroke="none" 
	d="
M329.275208,224.497925 
	C347.021515,224.211838 365.014801,224.273163 383.007568,224.203873 
	C398.367462,224.144714 405.185120,217.200195 405.198944,201.856812 
	C405.219696,178.865524 405.250763,155.874222 405.400879,132.429352 
	C407.515228,131.975769 409.506104,131.975769 412.170044,131.975769 
	C412.170044,133.753845 412.170105,135.347717 412.170105,136.941574 
	C412.170013,159.884155 412.184235,182.826736 412.164032,205.769302 
	C412.153107,218.210449 405.047455,225.908340 392.669891,226.083588 
	C374.220947,226.344803 355.765167,226.196075 337.313171,226.078918 
	C334.713470,226.062424 332.118927,225.238724 329.275208,224.497925 
z"/>
<path fill="#FE0AFE" opacity="1.000000" stroke="none" 
	d="
M446.897644,12.547070 
	C429.035248,12.902766 410.889557,13.535354 392.797424,12.817835 
	C380.521912,12.330997 371.270721,21.809662 371.598175,34.270817 
	C372.209442,57.534874 371.728424,80.827629 371.577148,104.561066 
	C369.458771,105.013687 367.465179,105.013687 364.803955,105.013687 
	C364.803955,103.264664 364.803955,101.669548 364.803986,100.074440 
	C364.804016,77.111237 364.790161,54.148014 364.809631,31.184822 
	C364.820282,18.596193 372.399658,11.006783 384.922394,11.000348 
	C402.727203,10.991198 420.532349,10.944470 438.336487,11.053873 
	C441.105713,11.070889 443.870422,11.831941 446.897644,12.547070 
z"/>
<path fill="#F807F8" opacity="1.000000" stroke="none" 
	d="
M701.945801,12.419901 
	C679.501953,12.896983 657.021423,12.955896 634.540955,13.009661 
	C622.630371,13.038146 614.953369,20.675703 614.917419,32.707184 
	C614.864075,50.527725 615.040771,68.350143 614.834351,86.168457 
	C614.753357,93.161034 616.879700,98.878952 622.379028,103.713150 
	C614.380493,102.641785 608.303101,95.686707 608.221436,86.831673 
	C608.043396,67.546249 607.990662,48.255764 608.240051,28.971910 
	C608.369995,18.917978 616.635864,11.048415 626.594543,11.013460 
	C650.536804,10.929421 674.479614,10.971805 698.421997,11.028908 
	C699.585144,11.031682 700.746887,11.661673 701.945801,12.419901 
z"/>
<path fill="#F807F8" opacity="1.000000" stroke="none" 
	d="
M325.481018,12.566650 
	C306.934143,12.898018 288.149750,12.956191 269.365387,13.010441 
	C257.785370,13.043884 249.973724,20.711750 249.924911,32.331661 
	C249.849503,50.288074 250.039856,68.246582 249.835587,86.200989 
	C249.756165,93.183212 251.893066,98.886375 257.378967,103.713058 
	C249.382217,102.645363 243.302994,95.687828 243.219849,86.833206 
	C243.040329,67.713844 243.037430,48.590485 243.212784,29.471058 
	C243.309723,18.900635 251.525299,11.031478 262.090576,11.000166 
	C280.712677,10.944975 299.335297,10.937164 317.956940,11.042557 
	C320.388092,11.056316 322.814758,11.856093 325.481018,12.566650 
z"/>
<path fill="#0BF4F4" opacity="1.000000" stroke="none" 
	d="
M325.107910,107.229195 
	C337.815948,106.027885 344.201996,99.064560 344.213043,86.340515 
	C344.228394,68.708519 344.088654,51.075169 344.272095,33.445076 
	C344.360565,24.941414 341.052368,18.696857 333.396118,14.400030 
	C343.048553,14.000119 351.411652,21.706858 351.556610,31.924671 
	C351.830505,51.226887 351.799103,70.537613 351.572876,89.841034 
	C351.453583,100.021790 343.700439,107.485046 333.427765,108.038895 
	C330.938782,108.173080 328.440735,108.138985 325.514893,107.895676 
	C325.082916,107.609077 325.107910,107.229195 325.107910,107.229195 
z"/>
<path fill="#FD03FD" opacity="1.000000" stroke="none" 
	d="
M519.330139,129.394714 
	C496.933380,129.890305 474.477478,129.948624 452.021576,130.000687 
	C440.218567,130.028046 432.359833,137.782578 432.316559,149.657669 
	C432.251068,167.624786 432.380737,185.592911 432.257599,203.559433 
	C432.209778,210.534119 434.540375,216.216049 440.266022,220.833801 
	C432.480286,220.016006 425.987549,213.190674 425.894531,204.776810 
	C425.675568,184.969147 425.663239,165.155594 425.891083,145.348160 
	C425.997589,136.089966 434.060699,128.120728 443.277740,128.056961 
	C467.748077,127.887657 492.220367,127.989052 516.691772,128.038651 
	C517.552124,128.040390 518.411255,128.636017 519.330139,129.394714 
z"/>
<path fill="#FE01FE" opacity="1.000000" stroke="none" 
	d="
M629.746521,129.541199 
	C611.221985,129.889008 592.448242,129.946899 573.674438,129.998505 
	C562.144958,130.030182 554.224976,137.776627 554.189331,149.296341 
	C554.115295,173.224197 554.142029,197.152344 554.039551,221.542145 
	C551.999268,222.003922 550.046814,222.003922 547.626160,222.003922 
	C547.626160,220.092499 547.626221,218.638351 547.626221,217.184189 
	C547.626221,194.203110 547.605896,171.221985 547.634277,148.240952 
	C547.649902,135.618683 555.234131,128.009064 567.731689,128.001663 
	C585.550354,127.991135 603.369324,127.945572 621.187317,128.054916 
	C623.959656,128.071930 626.727417,128.832138 629.746521,129.541199 
z"/>
<path fill="#01F5F5" opacity="1.000000" stroke="none" 
	d="
M210.632431,107.463425 
	C214.323502,107.169907 218.280289,107.169907 222.877075,107.169907 
	C222.877075,76.022850 222.877075,45.463352 222.964447,14.440802 
	C225.042068,13.977753 227.032303,13.977753 229.414154,13.977753 
	C229.414154,45.209129 229.414154,76.221107 229.414154,107.756950 
	C223.352493,107.756950 217.125320,107.756950 210.632431,107.463425 
z"/>
<path fill="#03F5F5" opacity="1.000000" stroke="none" 
	d="
M636.403503,224.559875 
	C640.310303,224.167999 644.253723,224.167999 648.429871,224.167999 
	C648.547119,222.026215 648.695923,220.564682 648.696899,219.103043 
	C648.711426,196.133011 648.654053,173.162796 648.737183,150.193069 
	C648.763977,142.793076 646.052368,136.951202 639.723328,132.453491 
	C648.806213,133.744064 655.616272,140.523209 655.704651,149.532364 
	C655.952087,174.760803 655.790833,199.993256 655.790833,226.434174 
	C649.160950,225.926285 642.800537,225.439026 636.403503,224.559875 
z"/>
<path fill="#0CF2F3" opacity="1.000000" stroke="none" 
	d="
M641.601013,87.832306 
	C639.312866,87.832306 637.024658,87.832306 634.514648,87.832306 
	C634.514648,69.194046 634.514648,50.818546 634.514648,32.013256 
	C659.361755,32.013256 683.914246,32.013256 709.294739,32.013256 
	C709.294739,26.021816 709.294739,20.444365 709.419006,14.412786 
	C711.691589,13.958661 713.839905,13.958661 716.316101,13.958661 
	C716.316101,20.302618 716.316101,26.346573 716.316101,32.913040 
	C691.537964,32.913040 666.860779,32.913040 641.702332,32.913040 
	C641.702332,50.662750 641.702332,67.898438 641.704468,85.878502 
	C641.671387,87.026024 641.636230,87.429161 641.601013,87.832306 
z"/>
<path fill="#02F5F5" opacity="1.000000" stroke="none" 
	d="
M581.410522,107.347366 
	C586.276184,104.605522 587.961426,100.536903 587.922485,94.893059 
	C587.738403,68.231064 587.862793,41.566948 587.964539,14.440495 
	C590.040466,13.977403 592.029114,13.977403 594.810242,13.977403 
	C594.810242,15.755733 594.810242,17.320711 594.810242,18.885691 
	C594.810181,44.680946 594.820190,70.476204 594.804810,96.271454 
	C594.799316,105.426689 590.886169,108.786240 581.410522,107.347366 
z"/>
<path fill="#01FBFB" opacity="1.000000" stroke="none" 
	d="
M459.029236,204.832733 
	C456.880707,204.832733 454.732208,204.832733 452.207764,204.832733 
	C452.207764,186.450195 452.207764,168.084152 452.207764,149.185150 
	C476.752289,149.185150 501.432037,149.185150 526.874695,149.185150 
	C526.874695,143.424866 526.874695,138.169083 526.962280,132.451843 
	C529.189636,131.990387 531.329468,131.990387 533.753540,131.990387 
	C533.753540,138.341156 533.753540,144.391312 533.753540,150.938202 
	C508.916809,150.938202 484.240448,150.938202 459.082611,150.938202 
	C459.082611,168.330307 459.082611,185.232239 459.090454,202.884430 
	C459.075287,204.034012 459.052246,204.433380 459.029236,204.832733 
z"/>
<path fill="#09FCFC" opacity="1.000000" stroke="none" 
	d="
M454.216919,107.490295 
	C457.750183,107.156845 461.553925,107.156845 465.803558,107.156845 
	C465.916443,105.088058 466.078064,103.493561 466.079224,101.898949 
	C466.095612,79.095238 465.987335,56.290813 466.143646,33.488167 
	C466.201874,24.993073 462.948578,18.716633 455.260559,14.419687 
	C464.169189,14.123076 472.781372,21.107506 472.923065,30.169310 
	C473.325897,55.926052 473.064392,81.693184 473.064392,107.823753 
	C466.694031,107.823753 460.590698,107.823753 454.216919,107.490295 
z"/>
<path fill="#F909F9" opacity="1.000000" stroke="none" 
	d="
M322.805450,129.434814 
	C319.060425,129.842438 315.276337,129.842438 311.184631,129.842438 
	C311.071838,132.077515 310.920654,133.689972 310.919556,135.302536 
	C310.904114,157.931610 311.024963,180.561630 310.840118,203.189194 
	C310.783051,210.176544 312.901245,215.882767 318.378174,220.720261 
	C311.149078,219.904816 304.464752,213.848618 304.333984,206.016220 
	C303.902527,180.178986 304.171417,154.330078 304.171417,127.535255 
	C310.617798,128.052475 316.692108,128.539841 322.805450,129.434814 
z"/>
<path fill="#F809F9" opacity="1.000000" stroke="none" 
	d="
M397.808350,129.433960 
	C394.061157,129.841858 390.274963,129.841858 385.921936,129.841858 
	C385.921936,155.155563 385.921936,179.837601 385.921936,204.962845 
	C369.588104,204.962845 353.831451,204.962845 337.628632,204.613556 
	C337.259705,203.872284 337.336914,203.480316 337.414124,203.088364 
	C351.031189,203.088364 364.648254,203.088364 378.872742,203.088364 
	C378.872742,178.084656 378.872742,153.286942 378.872742,127.509918 
	C385.610413,128.050507 391.689911,128.538284 397.808350,129.433960 
z"/>
<path fill="#FF00FF" opacity="1.000000" stroke="none" 
	d="
M140.151276,12.396162 
	C136.410141,12.828397 132.629227,12.828397 128.233078,12.828397 
	C128.233078,43.666973 128.233078,73.872452 128.135056,104.538101 
	C126.078224,104.998276 124.119415,104.998276 121.903961,104.998276 
	C121.903961,73.626427 121.903961,42.643490 121.903961,10.647136 
	C127.952995,11.084610 134.032242,11.524269 140.151276,12.396162 
z"/>
<path fill="#FE01FE" opacity="1.000000" stroke="none" 
	d="
M500.839844,12.544790 
	C495.210602,14.620263 493.212524,18.739902 493.234894,24.625145 
	C493.335358,51.109684 493.251160,77.594925 493.135437,104.540215 
	C491.081909,105.000519 489.126495,105.000519 486.885345,105.000519 
	C486.778748,103.858681 486.641968,103.075172 486.641602,102.291595 
	C486.629242,75.393921 486.589996,48.496151 486.651367,21.598616 
	C486.671173,12.924233 492.559937,9.069518 500.839844,12.544790 
z"/>
<path fill="#10F7F7" opacity="1.000000" stroke="none" 
	d="
M196.213074,224.917755 
	C211.132965,224.428375 226.095535,224.335785 241.057938,224.223862 
	C249.372742,224.161667 257.697449,224.295898 265.999359,223.927826 
	C275.775269,223.494400 283.158600,215.963577 283.505951,206.224823 
	C283.748962,199.412521 283.668030,192.581985 283.517670,185.764328 
	C283.388580,179.911758 280.553131,175.314728 276.092865,171.250732 
	C283.790222,171.954666 290.118927,178.813614 290.531067,187.368362 
	C290.875275,194.513580 290.925507,201.707855 290.512177,208.846008 
	C289.975464,218.114853 282.408142,225.825455 273.380676,225.933655 
	C248.401108,226.233047 223.416885,226.150284 198.434464,226.168365 
	C197.708405,226.168884 196.981949,225.606445 196.213074,224.917755 
z"/>
<path fill="#0CFBFB" opacity="1.000000" stroke="none" 
	d="
M451.155518,224.522186 
	C470.158417,224.168625 489.428040,224.330429 508.686462,223.938980 
	C519.431763,223.720566 526.692688,215.654541 526.784668,204.790146 
	C526.880371,193.495773 526.833740,182.200195 526.939514,170.442566 
	C529.171936,169.980011 531.314148,169.980011 533.749695,169.980011 
	C533.749695,183.877335 534.339478,197.503311 533.532043,211.046005 
	C533.035156,219.380051 525.035522,225.849792 516.653076,225.945129 
	C496.846466,226.170395 477.035339,226.050095 457.226532,225.963333 
	C455.288544,225.954849 453.353821,225.209595 451.155518,224.522186 
z"/>
<path fill="#FA04FA" opacity="1.000000" stroke="none" 
	d="
M275.938721,129.416245 
	C253.481552,129.892044 230.988953,129.946182 208.496353,130.005096 
	C197.244736,130.034561 189.323959,137.830734 189.189484,149.077774 
	C189.121765,154.742645 189.324265,160.413788 189.139801,166.073471 
	C188.905563,173.260590 191.357437,179.097198 197.312332,183.792984 
	C188.872330,182.926498 182.490829,175.808182 182.213318,166.603806 
	C182.007706,159.784058 182.000748,152.947739 182.213898,146.128464 
	C182.522842,136.244354 190.390900,128.101761 199.985764,128.042053 
	C224.291931,127.890800 248.599670,127.978981 272.906647,128.032928 
	C273.906219,128.035156 274.904449,128.661163 275.938721,129.416245 
z"/>
<path fill="#0BF4F4" opacity="1.000000" stroke="none" 
	d="
M690.051636,107.236504 
	C703.029968,105.991104 709.195374,99.106682 709.218872,85.852249 
	C709.238403,74.858826 709.270813,63.865421 709.422180,52.417866 
	C711.691284,51.963722 713.835693,51.963722 716.644287,51.963722 
	C716.644287,56.003242 716.644653,59.753643 716.644226,63.504044 
	C716.643372,72.142387 716.777100,80.783401 716.606323,89.418388 
	C716.399536,99.875847 708.875183,107.797646 698.404968,107.977570 
	C679.972534,108.294319 661.532043,108.146049 643.158508,108.082756 
	C656.719543,107.969841 670.217285,107.997894 683.714417,107.931053 
	C685.827942,107.920586 687.939270,107.478828 690.051636,107.236504 
z"/>
<path fill="#0EFDFD" opacity="1.000000" stroke="none" 
	d="
M337.311462,202.623764 
	C337.336914,203.480316 337.259705,203.872284 337.172272,204.565186 
	C335.034515,204.866119 332.906982,204.866119 330.286438,204.866119 
	C330.286438,180.696472 330.286438,156.791656 330.410339,132.433685 
	C332.521667,131.980499 334.509125,131.980499 337.208832,131.980499 
	C337.208832,155.494019 337.208832,178.826584 337.311462,202.623764 
z"/>
<path fill="#02F6F6" opacity="1.000000" stroke="none" 
	d="
M500.634766,107.462746 
	C504.320435,107.169518 508.271881,107.169518 512.669556,107.169518 
	C512.669556,86.918678 512.669556,67.236259 512.669556,47.553837 
	C513.020935,47.334042 513.372314,47.114243 513.723755,46.894444 
	C515.671509,48.958279 517.619202,51.022118 519.697754,53.705246 
	C519.897522,55.632404 519.966370,56.940269 520.035278,58.248135 
	C520.035278,74.603889 520.035278,90.959641 520.035278,107.755974 
	C513.301819,107.755974 507.101196,107.755974 500.634766,107.462746 
z"/>
<path fill="#02F3F4" opacity="1.000000" stroke="none" 
	d="
M215.605804,167.813477 
	C213.488708,167.813477 211.371597,167.813477 208.981979,167.813477 
	C208.981979,161.638184 208.981979,155.706039 208.981979,149.219147 
	C233.623840,149.219147 258.308655,149.219147 283.759369,149.219147 
	C283.759369,143.425400 283.759369,138.161407 283.858398,132.436401 
	C285.939758,131.975403 287.922058,131.975403 290.273682,131.975403 
	C290.273682,138.257462 290.273682,144.290039 290.273682,150.839294 
	C265.597504,150.839294 240.939896,150.839294 215.695877,150.839294 
	C215.695877,155.909042 215.695877,160.491058 215.678650,165.814514 
	C215.642899,166.975128 215.624359,167.394302 215.605804,167.813477 
z"/>
<path fill="#01F6F7" opacity="1.000000" stroke="none" 
	d="
M561.409668,224.560944 
	C565.314087,224.169479 569.254150,224.169479 573.574158,224.169479 
	C573.574158,211.564819 573.574158,199.639389 573.574158,187.537292 
	C574.862732,187.311554 575.801575,187.005341 576.741028,187.003586 
	C593.034363,186.973267 609.327881,186.957825 625.620972,187.027985 
	C626.753113,187.032852 627.882324,187.734482 628.523315,188.545502 
	C626.228577,189.038788 624.423279,189.098663 622.618042,189.158539 
	C608.846558,189.158539 595.075073,189.158539 580.791504,189.158539 
	C580.791504,201.468704 580.791504,213.520309 580.791504,226.502884 
	C573.966248,225.955887 567.705750,225.454163 561.409668,224.560944 
z"/>
<path fill="#F302F3" opacity="1.000000" stroke="none" 
	d="
M263.916473,188.966904 
	C263.916473,194.091476 263.916473,199.216049 263.916473,204.865204 
	C239.195190,204.865204 214.522552,204.865204 189.126129,204.865204 
	C189.126129,210.627914 189.126129,215.885010 189.038696,221.607910 
	C186.831512,222.073715 184.711746,222.073715 182.377258,222.073715 
	C182.377258,215.666718 182.377258,209.743240 182.377258,203.296890 
	C207.112366,203.296890 231.771927,203.296890 257.142029,203.296890 
	C257.142029,198.553589 257.142029,194.312363 257.556183,189.545593 
	C259.952393,189.002350 261.934418,188.984619 263.916473,188.966904 
z"/>
<path fill="#FF00FF" opacity="1.000000" stroke="none" 
	d="
M215.151276,12.396162 
	C211.405441,12.828397 207.619827,12.828397 203.427643,12.828397 
	C203.427643,25.745209 203.427643,38.018860 203.427643,50.962765 
	C187.265091,50.962765 171.507202,50.962765 155.274887,50.578979 
	C154.880234,49.794273 154.959991,49.393356 155.039749,48.992439 
	C168.652084,48.992439 182.264420,48.992439 196.356720,48.992439 
	C196.356720,36.414215 196.356720,24.039501 196.356720,10.610389 
	C202.951614,11.086345 209.031555,11.525136 215.151276,12.396162 
z"/>
<path fill="#FF00FF" opacity="1.000000" stroke="none" 
	d="
M580.151489,12.395861 
	C576.416565,12.828072 572.641785,12.828072 568.222656,12.828072 
	C568.222656,31.126120 568.222656,48.817497 567.818359,66.811523 
	C565.470032,65.074791 563.526062,63.035412 561.582031,60.996040 
	C561.582031,44.554523 561.582031,28.112997 561.582031,10.627707 
	C567.951172,11.086905 574.031372,11.525278 580.151489,12.395861 
z"/>
<path fill="#08F4F6" opacity="1.000000" stroke="none" 
	d="
M561.320923,60.822845 
	C563.526062,63.035412 565.470032,65.074791 567.716919,67.302414 
	C568.113281,69.125992 568.206848,70.761337 568.393188,74.019089 
	C547.944214,53.586395 528.504089,34.161716 508.888733,14.444839 
	C513.031677,13.189919 515.941101,15.469532 518.755371,18.299892 
	C532.824036,32.449112 546.952454,46.538933 561.320923,60.822845 
z"/>
<path fill="#01F5F5" opacity="1.000000" stroke="none" 
	d="
M135.633545,107.463303 
	C139.322037,107.169907 143.276245,107.169907 147.778595,107.169907 
	C147.778595,94.563187 147.778595,82.525795 147.778595,70.010674 
	C162.907928,70.010674 177.488922,70.010674 192.533630,70.249680 
	C192.997330,70.488678 192.997314,70.825996 192.997314,70.825996 
	C180.406021,70.825996 167.814743,70.825996 154.890869,70.825996 
	C154.890869,83.408188 154.890869,95.327812 154.890869,107.756691 
	C148.346527,107.756691 142.122894,107.756691 135.633545,107.463303 
z"/>
<path fill="#09FDFD" opacity="1.000000" stroke="none" 
	d="
M379.220276,107.489571 
	C382.738708,107.156349 386.527496,107.156349 390.874023,107.156349 
	C390.874023,94.711189 390.874023,82.716827 390.874023,69.989746 
	C393.321655,69.989746 395.222687,69.989746 397.582214,70.341690 
	C398.061920,70.879547 398.083099,71.065453 398.104279,71.251350 
	C398.104279,83.328972 398.104279,95.406601 398.104279,107.822792 
	C391.669037,107.822792 385.579803,107.822792 379.220276,107.489571 
z"/>
<path fill="#02F5F6" opacity="1.000000" stroke="none" 
	d="
M154.943268,48.532867 
	C154.959991,49.393356 154.880234,49.794273 154.798523,50.505089 
	C152.670105,50.814987 150.543671,50.814987 147.875778,50.814987 
	C147.875778,38.734432 147.875778,26.819063 147.963303,14.440651 
	C150.154816,13.977611 152.258820,13.977611 154.846802,13.977611 
	C154.846802,25.658674 154.846802,36.865982 154.943268,48.532867 
z"/>
<path fill="#F603F6" opacity="1.000000" stroke="none" 
	d="
M520.346313,58.444218 
	C519.966370,56.940269 519.897522,55.632404 519.912903,53.933601 
	C536.960999,70.443260 553.924805,87.343857 571.036499,104.546112 
	C568.207336,103.351219 564.626587,102.474014 562.351746,100.256927 
	C548.290161,86.552361 534.522583,72.546242 520.346313,58.444218 
z"/>
<path fill="#FF0DFF" opacity="1.000000" stroke="none" 
	d="
M446.475250,70.971832 
	C446.554596,82.017517 446.633972,93.063194 446.589386,104.561745 
	C444.468933,105.014610 442.472412,105.014610 439.806610,105.014610 
	C439.806610,93.935501 439.806610,83.003937 440.225342,71.533829 
	C442.587830,70.987473 444.531525,70.979652 446.475250,70.971832 
z"/>
<path fill="#F906F9" opacity="1.000000" stroke="none" 
	d="
M519.386719,167.459106 
	C503.162903,167.840027 486.908813,167.840027 469.833344,167.840027 
	C469.833344,173.552521 469.833344,178.789841 469.731079,184.478836 
	C467.652893,184.930511 465.677032,184.930511 463.439301,184.930511 
	C463.439301,178.652115 463.439301,172.724899 463.439301,166.469620 
	C464.254822,166.322113 465.174591,166.012268 466.094879,166.010620 
	C482.711090,165.980667 499.327454,165.966492 515.943420,166.034073 
	C517.082458,166.038712 518.218811,166.714523 519.386719,167.459106 
z"/>
<path fill="#FE00FE" opacity="1.000000" stroke="none" 
	d="
M701.924561,50.413437 
	C685.659729,50.832176 669.361877,50.832176 652.235474,50.832176 
	C652.235474,56.495327 652.235474,61.749981 652.138550,67.458435 
	C650.216492,67.912247 648.391357,67.912247 646.186462,67.912247 
	C646.186462,61.702316 646.186462,55.643093 646.186462,48.998833 
	C650.711487,48.998833 655.318787,48.998833 659.926086,48.998833 
	C672.414673,48.998837 684.903381,48.965313 697.391541,49.042747 
	C698.893433,49.052059 700.391602,49.662743 701.924561,50.413437 
z"/>
<path fill="#FF00FF" opacity="1.000000" stroke="none" 
	d="
M203.008224,70.985992 
	C203.083176,82.016632 203.158127,93.047287 203.135056,104.538101 
	C201.088593,104.998276 199.140167,104.998276 196.626175,104.998276 
	C196.626175,93.783997 196.626175,82.932610 197.073624,71.543533 
	C199.350128,70.999229 201.179169,70.992607 203.008224,70.985992 
z"/>
<path fill="#F307F3" opacity="1.000000" stroke="none" 
	d="
M642.090454,87.915474 
	C641.636230,87.429161 641.671387,87.026024 641.816223,86.339561 
	C655.446716,86.056244 668.967651,86.056244 683.143005,86.056244 
	C683.143005,81.190300 683.143005,76.633858 683.542847,71.553490 
	C685.828186,71.010185 687.713623,70.990807 689.599060,70.971436 
	C689.599060,76.404732 689.599060,81.838028 689.599060,87.998642 
	C673.900940,87.998642 658.240417,87.998642 642.090454,87.915474 
z"/>
<path fill="#FF00FF" opacity="1.000000" stroke="none" 
	d="
M622.622498,189.616638 
	C624.423279,189.098663 626.228577,189.038788 628.482910,188.979553 
	C628.996155,199.679153 629.060181,210.378098 629.036865,221.538605 
	C627.007812,222.000183 625.066101,222.000183 622.626953,222.000183 
	C622.626953,211.081696 622.626953,200.578201 622.622498,189.616638 
z"/>
<path fill="#F702F7" opacity="1.000000" stroke="none" 
	d="
M459.492676,204.893921 
	C459.052246,204.433380 459.075287,204.034012 459.187256,203.347961 
	C472.879578,203.061279 486.482941,203.061279 500.783325,203.061279 
	C500.783325,198.569595 500.783325,194.319565 501.220642,189.530518 
	C503.440704,188.985489 505.223480,188.979492 507.006226,188.973495 
	C507.006226,194.089630 507.006226,199.205765 507.006226,204.955109 
	C491.324127,204.955109 475.640137,204.955109 459.492676,204.893921 
z"/>
<path fill="#02F7F8" opacity="1.000000" stroke="none" 
	d="
M263.964661,188.534119 
	C261.934418,188.984619 259.952393,189.002350 257.550964,189.089020 
	C243.768005,189.100296 230.403473,189.113571 217.041656,188.929276 
	C214.126205,188.889084 211.220474,188.143066 208.029572,187.435516 
	C225.703415,187.092804 243.657928,187.022202 261.612427,187.028412 
	C262.412689,187.028687 263.212708,187.727768 263.964661,188.534119 
z"/>
<path fill="#FC00FC" opacity="1.000000" stroke="none" 
	d="
M216.095657,167.890045 
	C215.624359,167.394302 215.642899,166.975128 215.792542,166.269653 
	C229.080109,165.987350 242.237381,165.914673 255.392426,166.054398 
	C258.330170,166.085587 261.260040,166.862411 264.431274,167.564636 
	C248.641174,167.877762 232.613342,167.922195 216.095657,167.890045 
z"/>
<path fill="#03F6F8" opacity="1.000000" stroke="none" 
	d="
M507.053711,188.535553 
	C505.223480,188.979492 503.440704,188.985489 501.219086,189.075195 
	C494.451202,189.101730 488.120575,189.106827 481.794373,188.942001 
	C480.282532,188.902618 478.785400,188.296890 477.235016,187.549866 
	C486.348572,187.092041 495.508698,187.007523 504.668579,187.029190 
	C505.480286,187.031097 506.290375,187.725067 507.053711,188.535553 
z"/>
<path fill="#5DFCFC" opacity="1.000000" stroke="none" 
	d="
M324.637817,107.147720 
	C325.107910,107.229195 325.082916,107.609077 325.063141,107.798347 
	C307.049286,107.907852 289.055176,107.828087 270.770447,107.533348 
	C288.375732,107.234337 306.271729,107.150299 324.637817,107.147720 
z"/>
<path fill="#5DFCFC" opacity="1.000000" stroke="none" 
	d="
M689.586243,107.151672 
	C687.939270,107.478828 685.827942,107.920586 683.714417,107.931053 
	C670.217285,107.997894 656.719543,107.969841 642.793701,107.988419 
	C640.251587,107.916428 638.137878,107.829048 635.751709,107.530090 
	C653.359802,107.234619 671.240295,107.150726 689.586243,107.151672 
z"/>
<path fill="#06F2F4" opacity="1.000000" stroke="none" 
	d="
M446.283386,70.634232 
	C444.531525,70.979652 442.587830,70.987473 440.223846,71.074959 
	C426.208069,71.134689 412.612579,71.114746 398.560669,71.173080 
	C398.083099,71.065453 398.061920,70.879547 398.023804,70.413483 
	C414.035126,70.187759 430.063324,70.242195 446.283386,70.634232 
z"/>
<path fill="#07F1F5" opacity="1.000000" stroke="none" 
	d="
M689.405334,70.623260 
	C687.713623,70.990807 685.828186,71.010185 683.538696,71.096176 
	C675.558228,71.044418 667.981812,70.926048 660.123657,70.474792 
	C669.631775,70.186310 679.421692,70.230705 689.405334,70.623260 
z"/>
<path fill="#04F2F4" opacity="1.000000" stroke="none" 
	d="
M202.804901,70.614838 
	C201.179169,70.992607 199.350128,70.999229 197.068359,71.085754 
	C195.647614,71.101799 194.679581,71.037933 193.354431,70.900040 
	C192.997314,70.825996 192.997330,70.488678 192.997437,70.320015 
	C196.198898,70.182129 199.400238,70.212906 202.804901,70.614838 
z"/>
<path fill="#10F7F7" opacity="1.000000" stroke="none" 
	d="
M276.070007,170.659012 
	C275.589478,170.843933 275.107758,170.732422 274.495728,170.392273 
	C274.933258,170.229935 275.501007,170.296265 276.070007,170.659012 
z"/>
<path fill="#F807F8" opacity="1.000000" stroke="none" 
	d="
M257.596069,104.269470 
	C257.831085,104.086792 258.221069,104.180946 258.784363,104.528137 
	C258.555450,104.702881 258.153259,104.624603 257.596069,104.269470 
z"/>
<path fill="#F807F8" opacity="1.000000" stroke="none" 
	d="
M622.595947,104.268646 
	C622.830505,104.086525 623.219971,104.180733 623.782593,104.527557 
	C623.554138,104.701767 623.152527,104.623367 622.595947,104.268646 
z"/>
<path fill="#F909F9" opacity="1.000000" stroke="none" 
	d="
M318.581146,221.292419 
	C318.830994,221.093231 319.226013,221.184967 319.797119,221.532623 
	C319.557587,221.720123 319.141937,221.651718 318.581146,221.292419 
z"/>
<path fill="#02F7F8" opacity="1.000000" stroke="none" 
	d="
M580.791870,167.819855 
	C578.661377,167.819855 576.530823,167.819855 574.055725,167.819855 
	C574.055725,161.674927 574.055725,155.641220 574.055725,148.976654 
	C577.184875,148.976654 580.280884,148.976654 583.376892,148.976654 
	C596.966125,148.976669 610.555603,148.938675 624.144287,149.026749 
	C625.770020,149.037277 627.391296,149.733505 628.524780,150.545532 
	C626.232483,151.038834 624.430054,151.098526 622.188477,151.091431 
	C608.184448,151.024643 594.619568,151.024643 581.036316,151.024643 
	C581.036316,156.410812 581.036316,161.204849 580.931885,166.290436 
	C580.815552,166.994614 580.803711,167.407242 580.791870,167.819855 
z"/>
<path fill="#FF00FF" opacity="1.000000" stroke="none" 
	d="
M581.269287,167.893280 
	C580.803711,167.407242 580.815552,166.994614 581.398071,166.293182 
	C595.370422,166.004379 608.772034,166.004379 622.627625,166.004379 
	C622.627625,160.722092 622.627625,155.940155 622.627625,151.158218 
	C624.430054,151.098526 626.232483,151.038834 628.484741,150.979797 
	C628.934570,156.430908 628.934570,161.881393 628.934570,167.966721 
	C613.156311,167.966721 597.451538,167.966721 581.269287,167.893280 
z"/>
<path fill="#FE09FF" opacity="1.000000" stroke="none" 
	d="
M446.459442,32.976395 
	C446.459442,38.764252 446.459442,44.552113 446.459442,50.943367 
	C430.592529,50.943367 414.834930,50.943367 398.623657,50.585430 
	C398.248871,49.822407 398.327789,49.417320 398.848633,49.011093 
	C412.656647,49.009949 426.022675,49.009949 439.806427,49.009949 
	C439.806427,43.357952 439.806427,38.257454 440.225220,33.077869 
	C442.582489,32.991325 444.520966,32.983860 446.459442,32.976395 
z"/>
<path fill="#0AFDFD" opacity="1.000000" stroke="none" 
	d="
M398.406708,49.012234 
	C398.327789,49.417320 398.248871,49.822407 398.167236,50.540142 
	C396.040405,50.852791 393.916321,50.852791 391.440216,50.852791 
	C391.440216,44.715668 391.440216,38.710644 391.440216,31.988224 
	C393.336060,31.988224 395.230804,31.988224 397.585327,32.337677 
	C398.066742,32.871235 398.088348,33.055340 398.132294,33.690552 
	C398.238617,39.098518 398.322662,44.055374 398.406708,49.012234 
z"/>
<path fill="#06F2F4" opacity="1.000000" stroke="none" 
	d="
M398.109985,33.239441 
	C398.088348,33.055340 398.066742,32.871235 398.027161,32.409660 
	C414.036041,32.187084 430.062836,32.241982 446.274536,32.636635 
	C444.520966,32.983860 442.582489,32.991325 439.773193,33.016224 
	C425.304932,33.102253 411.707458,33.170845 398.109985,33.239441 
z"/>
<path fill="#F509F5" opacity="1.000000" stroke="none" 
	d="
M324.472443,33.004230 
	C324.617645,44.106609 324.795135,55.208698 324.896210,66.311478 
	C324.959564,73.270081 324.908051,80.229729 324.908051,87.986015 
	C308.966675,87.986015 293.285889,87.986015 277.101379,87.712860 
	C276.597656,87.439713 276.345154,87.260269 276.486694,86.966766 
	C276.715942,86.474541 276.803711,86.275818 277.367676,86.070389 
	C291.123199,86.063667 304.402496,86.063667 318.072144,86.063667 
	C318.072144,68.119278 318.072144,50.676342 318.473572,33.160431 
	C320.740784,33.059715 322.606628,33.031975 324.472443,33.004230 
z"/>
<path fill="#0DFFFF" opacity="1.000000" stroke="none" 
	d="
M276.891449,86.077103 
	C276.803711,86.275818 276.715942,86.474541 276.394470,87.001350 
	C276.160706,87.329430 275.988434,87.694336 275.988434,87.694336 
	C273.891541,87.794182 271.794647,87.894012 269.456482,88.005341 
	C269.456482,69.217659 269.456482,50.950714 269.456482,31.985674 
	C271.850861,31.985674 274.105927,31.985674 276.734802,32.281559 
	C277.108643,32.577442 277.018494,33.040215 276.848511,33.479317 
	C276.749481,51.304649 276.820465,68.690880 276.891449,86.077103 
z"/>
<path fill="#0CC3C6" opacity="1.000000" stroke="none" 
	d="
M277.018494,33.040215 
	C277.018494,33.040215 277.108643,32.577442 277.194397,32.356533 
	C292.897675,32.191982 308.515228,32.248344 324.302612,32.654469 
	C322.606628,33.031975 320.740784,33.059715 318.002563,33.109741 
	C303.759613,33.101418 290.389069,33.070816 277.018494,33.040215 
z"/>
<path fill="#0CC3C6" opacity="1.000000" stroke="none" 
	d="
M276.152771,87.720886 
	C275.988434,87.694336 276.160706,87.329430 276.252930,87.294846 
	C276.345154,87.260269 276.597656,87.439713 276.623901,87.592308 
	C276.650116,87.744904 276.317139,87.747437 276.152771,87.720886 
z"/>
<path fill="#201E20" opacity="1.000000" stroke="none" 
	d="
M622.188477,151.091431 
	C622.627625,155.940155 622.627625,160.722092 622.627625,166.004379 
	C608.772034,166.004379 595.370422,166.004379 581.502563,166.001633 
	C581.036316,161.204849 581.036316,156.410812 581.036316,151.024643 
	C594.619568,151.024643 608.184448,151.024643 622.188477,151.091431 
z"/>
<path fill="#1F1F21" opacity="1.000000" stroke="none" 
	d="
M398.132294,33.690548 
	C411.707458,33.170845 425.304932,33.102253 439.354431,33.095306 
	C439.806427,38.257454 439.806427,43.357952 439.806427,49.009949 
	C426.022675,49.009949 412.656647,49.009949 398.848633,49.011093 
	C398.322662,44.055374 398.238617,39.098518 398.132294,33.690548 
z"/>
<path fill="#1E1E1E" opacity="1.000000" stroke="none" 
	d="
M276.848511,33.479317 
	C290.389069,33.070816 303.759613,33.101418 317.601166,33.182709 
	C318.072144,50.676342 318.072144,68.119278 318.072144,86.063667 
	C304.402496,86.063667 291.123199,86.063667 277.367676,86.070389 
	C276.820465,68.690880 276.749481,51.304649 276.848511,33.479317 
z"/>
</svg>